<mxfile host="65bd71144e">
    <diagram id="VNdqP-zpMeDR2vHIsyRI" name="Page-1">
        <mxGraphModel dx="1422" dy="412" grid="1" gridSize="10" guides="1" tooltips="1" connect="1" arrows="1" fold="1" page="1" pageScale="1" pageWidth="850" pageHeight="1100" math="0" shadow="0">
            <root>
                <mxCell id="0"/>
                <mxCell id="1" parent="0"/>
                <mxCell id="10" style="edgeStyle=none;sketch=1;html=1;fillColor=#f8cecc;strokeColor=#b85450;" edge="1" parent="1" source="4" target="7">
                    <mxGeometry relative="1" as="geometry"/>
                </mxCell>
                <mxCell id="11" style="edgeStyle=orthogonalEdgeStyle;sketch=1;html=1;entryX=1;entryY=0;entryDx=0;entryDy=9.487257215711821;entryPerimeter=0;elbow=vertical;fillColor=#dae8fc;strokeColor=#6c8ebf;startArrow=none;exitX=0.5;exitY=1;exitDx=0;exitDy=0;" edge="1" parent="1" source="4" target="8">
                    <mxGeometry relative="1" as="geometry">
                        <mxPoint x="-520" y="140" as="sourcePoint"/>
                        <Array as="points">
                            <mxPoint x="-550" y="140"/>
                            <mxPoint x="-550" y="210"/>
                            <mxPoint x="-582" y="210"/>
                        </Array>
                    </mxGeometry>
                </mxCell>
                <mxCell id="13" style="edgeStyle=orthogonalEdgeStyle;sketch=1;html=1;elbow=vertical;fillColor=#d5e8d4;strokeColor=#82b366;" edge="1" parent="1" source="4" target="9">
                    <mxGeometry relative="1" as="geometry">
                        <Array as="points">
                            <mxPoint x="-520" y="170"/>
                            <mxPoint x="-480" y="170"/>
                            <mxPoint x="-480" y="225"/>
                        </Array>
                    </mxGeometry>
                </mxCell>
                <mxCell id="4" value="Event Streams - Broker" style="rounded=0;whiteSpace=wrap;html=1;fillColor=#dae8fc;strokeColor=#6c8ebf;verticalAlign=bottom;sketch=1;fontColor=#0000FF;" vertex="1" parent="1">
                    <mxGeometry x="-670" y="70" width="300" height="70" as="geometry"/>
                </mxCell>
                <mxCell id="5" value="" style="endArrow=none;html=1;sketch=1;" edge="1" parent="1">
                    <mxGeometry width="50" height="50" relative="1" as="geometry">
                        <mxPoint x="-670" y="180" as="sourcePoint"/>
                        <mxPoint x="-560" y="180" as="targetPoint"/>
                    </mxGeometry>
                </mxCell>
                <mxCell id="6" value="" style="endArrow=none;html=1;sketch=1;" edge="1" parent="1">
                    <mxGeometry width="50" height="50" relative="1" as="geometry">
                        <mxPoint x="-475" y="180" as="sourcePoint"/>
                        <mxPoint x="-375" y="180" as="targetPoint"/>
                    </mxGeometry>
                </mxCell>
                <mxCell id="7" value="?" style="shape=cylinder3;whiteSpace=wrap;html=1;boundedLbl=1;backgroundOutline=1;size=9.487257215711821;fontSize=21;sketch=1;fillColor=#f8cecc;strokeColor=#b85450;" vertex="1" parent="1">
                    <mxGeometry x="-552.5" y="250" width="60" height="50" as="geometry"/>
                </mxCell>
                <mxCell id="8" value="?" style="shape=cylinder3;whiteSpace=wrap;html=1;boundedLbl=1;backgroundOutline=1;size=9.487257215711821;fontSize=21;sketch=1;fillColor=#dae8fc;strokeColor=#6c8ebf;" vertex="1" parent="1">
                    <mxGeometry x="-642.5" y="250" width="60" height="50" as="geometry"/>
                </mxCell>
                <mxCell id="9" value="?" style="shape=cylinder3;whiteSpace=wrap;html=1;boundedLbl=1;backgroundOutline=1;size=9.487257215711821;fontSize=21;sketch=1;fillColor=#d5e8d4;strokeColor=#82b366;" vertex="1" parent="1">
                    <mxGeometry x="-457.5" y="250" width="60" height="50" as="geometry"/>
                </mxCell>
                <mxCell id="14" value="I/O Throughput" style="shape=loopLimit;whiteSpace=wrap;html=1;shadow=0;sketch=1;fontColor=#333333;rotation=-179;fillColor=#f5f5f5;strokeColor=#666666;fontSize=9;horizontal=1;verticalAlign=middle;" vertex="1" parent="1">
                    <mxGeometry x="-563" y="176.83" width="90" height="19.83" as="geometry"/>
                </mxCell>
            </root>
        </mxGraphModel>
    </diagram>
</mxfile>